# xmcd CD database file
#
# Track frame offsets:
#	150
#	21319
#	33864
#	51656
#	65875
#	79110
#	98941
#	112617
#	129412
#	140967
#	154495
#
# Disc length: 2281 seconds
#
# Revision: 5
# Processed by: cddbd v1.5.2PL0 Copyright (c) Steve Scherf et al.
# Submitted via: CDex 1.79
#
DISCID=9e08e70b
DTITLE=George Jones - It Don't Get Any Better Than This
DYEAR=1998
DGENRE=Country
TTITLE0=Wild Irish Rose
TTITLE1=Small Y'All
TTITLE2=Over You
TTITLE3=It Don't Get Any Better Than This (featuring Merle Haggard, Waylon Jennings, Bobby Bare, Willie Nelson)
TTITLE4=Smack Dab
TTITLE5=Don't Touch Me
TTITLE6=Got To Get To Louisiana (featuring T. Graham Brown)
TTITLE7=When Did You Stop Lovin' Me
TTITLE8=I Said All That To Say All This
TTITLE9=No Future For Me In Our Past
TTITLE10=I Can Live Forever
EXTD=YEAR: 1998
EXTT0=
EXTT1=
EXTT2=
EXTT3=
EXTT4=
EXTT5=
EXTT6=
EXTT7=
EXTT8=
EXTT9=
EXTT10=
PLAYORDER=
